PathFileType	4	(X/Y/Z)	C:/Users/beibeiliu/ov580/test_trc/capture2\sequence.32_training_dense_right.trc
DataRate	CameraRate	NumFrames	NumMarkers	Units	OrigDataRate	OrigDataStartFrame	OrigNumFrames
120	120	12	19	mm	120	246	327
Frame#	Time	ThumbCMC			ThumbMCP			ThumbIP			ThumbTip			IndexMCP			IndexPIP			IndexTip			MiddleMCP			MiddlePIP			MiddleTip			RingMCP			RingPIP			RingTip			PinkyMCP			PinkyPIP			PinkyTip			BackHand1			BackHand2			BackHand3	
		X0	Y0	Z0	X1	Y1	Z1	X2	Y2	Z2	X3	Y3	Z3	X4	Y4	Z4	X5	Y5	Z5	X6	Y6	Z6	X7	Y7	Z7	X8	Y8	Z8	X9	Y9	Z9	X10	Y10	Z10	X11	Y11	Z11	X12	Y12	Z12	X13	Y13	Z13	X14	Y14	Z14	X15	Y15	Z15	X16	Y16	Z16	X17	Y17	Z17	X18	Y18	Z18	
245	2.04167	175.432	51.305	90.7669	173.834	73.181	70.495	178.6	88.4908	52.8315	181.556	103.175	35.5914	156.295	40.3581	17.0277	138.484	59.3224	2.90307	108.766	74.9338	12.3509	150.485	9.73507	11.8764	141.986	12.0636	-11.437	133.71	12.9662	-37.4192	135.453	-6.07405	22.314	129.92	-8.02021	-3.02467	120.787	-12.0499	-25.129	114.326	-14.5004	36.6369	105.535	-18.0241	21.2167	97.7405	-32.3626	3.81555	149.423	-5.21728	66.0673	155.227	-5.74211	99.5421	175.061	17.677	79.0598	
246	2.05	176.714	52.5887	88.3156	174.009	74.4331	70.3317	175.564	89.2291	51.9192	177.584	103.194	32.0783	155.034	40.704	17.0687	133.544	61.8614	4.34044	110.736	75.1432	15.8749	149.715	9.57054	10.599	139.656	10.4217	-13.1405	130.584	15.6335	-40.9804	139.113	-2.93801	21.3695	128.233	-10.6194	-2.68894	118.688	-12.8435	-26.3234	116.4	-12.7808	38.2732	106.848	-18.5803	24.0942	96.7561	-35.2709	2.94078	148.294	-8.46547	68.2186	153.98	-7.36903	99.4691	175.766	17.3885	79.4535	
247	2.05833	176.847	53.2611	88.3209	173.689	75.3972	70.6317	174.794	91.5437	51.3473	176.309	105.078	33.9157	156.994	42.4518	16.6933	132.759	61.9845	6.50229	111.468	78.1196	23.7975	150.98	11.194	11.9592	140.301	12.1612	-14.1564	128.91	16.6457	-39.0604	135.947	-7.01716	19.2661	125.689	-11.3009	-1.72371	117.472	-12.1234	-28.0242	114.646	-16.4188	38.4704	105.835	-20.8152	21.5193	93.1025	-34.8288	6.05415	147.647	-6.62478	72.173	155.354	-4.45263	98.3225	175.998	15.7433	76.8386	
248	2.06667	174.07	51.9545	88.8502	171.327	73.9993	73.09	172.972	90.9854	49.9878	172.87	105.226	32.8295	155.94	41.0952	16.2234	133.091	57.1097	6.2	112.013	72.282	24.6189	148.408	6.86483	10.976	140.305	10.8473	-14.0564	125.146	15.9887	-38.5252	136.896	-5.36788	22.9011	129.307	-10.0347	0.00915693	116.325	-10.6939	-28.6875	115.634	-15.553	40.8087	103.934	-21.9153	23.0318	90.1381	-36.8057	4.14452	148.788	-7.44393	71.7369	153.092	-9.89828	100.911	172.376	14.513	78.3819	
249	2.075	173.041	48.7784	90.0262	169.792	73.1861	68.7108	170.49	88.3206	50.7884	169.32	103.384	29.1259	155.068	37.4962	14.6363	134.873	57.0533	5.26152	113.937	69.2615	25.1353	149.7	3.74048	11.8277	141.729	7.33534	-12.4633	121.274	14.3291	-38.309	137.833	-8.86996	21.2197	127.529	-13.341	-1.77221	115.22	-10.1535	-27.6885	117.063	-15.4055	39	101.055	-24.9583	26.6826	88.6732	-34.3786	2.85843	150.743	-6.57863	71.3866	154.473	-7.72872	103.001	172.525	10.319	80.8702	
250	2.08333	174.345	50.3471	85.8848	170.304	73.9858	72.291	171.449	90.2132	49.7046	165.64	98.7703	29.5695	157.835	37.36	13.8989	135.962	50.8315	3.85385	117.888	68.3367	23.408	151.366	3.83125	16.0063	139.253	3.63153	-12.5494	120.61	14.7617	-35.3197	135.501	-10.7897	27.8202	126.359	-15.7784	0.670813	112.363	-9.33611	-27.2891	115.381	-17.0882	41.9138	101.076	-26.4877	23.7885	87.4175	-33.7638	4.82256	150.769	-7.83212	74.3388	154.54	-7.00957	100.534	174.493	13.0219	77.9557	
251	2.09167	176.17	50.3801	87.853	168.182	70.4183	72.7216	168.36	86.8138	51.9259	163.77	97.2804	26.5196	162.002	33.2628	18.326	139.719	52.9819	2.21751	118.238	66.7108	26.3926	154.576	4.1164	16.7639	140.203	4.28298	-12.8244	122.809	16.2579	-34.2693	138.236	-10.2273	25.8765	125.579	-16.7079	0.412035	111.834	-5.43708	-25.388	115.134	-19.0325	42.8476	101.661	-25.0007	22.9791	88.7999	-33.8727	2.95678	151.231	-9.4516	71.5551	151.582	-10.0695	100.908	173.81	11.7722	79.05	
252	2.1	174.383	50.0377	87.9237	169.172	72.0885	68.667	167.033	87.3658	49.1714	158.615	93.9716	29.4805	159.38	26.6438	17.4621	138.966	46.948	0.638332	121.593	66.7268	22.6669	152.813	1.53001	16.4581	139.583	0.369977	-10.1063	117.873	19.0308	-33.0668	137.236	-10.7975	26.2606	125.056	-16.681	0.0151067	109.385	-3.82457	-24.7626	117.472	-16.6646	40.2162	100.101	-26.0121	25.0974	84.6671	-32.8638	5.56844	148.764	-11.9376	73.7219	151.622	-11.6436	102.594	172.835	8.88056	80.5761	
253	2.10833	174.497	49.1815	85.3659	166.474	69.7847	72.436	165.465	88.4548	46.2082	157.223	95.5324	25.5724	162.906	28.1918	16.2248	142.284	45.0071	-2.0018	124.17	63.4025	15.5456	153.839	2.51017	16.2276	137.19	1.67074	-13.3395	117.101	20.5514	-31.7846	136.14	-13.1866	25.6933	125.573	-14.3805	0.45871	108.723	-0.479903	-23.2557	114.395	-18.1078	42.9123	101.596	-24.9993	25.5268	83.8388	-31.1323	4.98533	147.044	-10.3575	72.0871	155.767	-10.4599	101.407	173.394	7.90519	80.9968	
254	2.11667	172.374	47.347	89.2273	163.945	69.4435	71.2344	161.736	84.4711	48.9252	149.729	88.6876	26.2287	160.545	25.0705	14.4231	142.811	39.6544	-1.53803	124.406	65.1975	16.5744	153.592	2.08209	17.6841	138.107	2.91257	-12.2427	113.53	23.2922	-28.1285	136.689	-11.9235	25.631	125.228	-12.6531	-2.11493	106.627	4.70774	-22.0881	113.415	-19.6992	43.8803	100.166	-23.1552	20.4527	83.0934	-24.651	4.16338	146.821	-12.5614	75.4412	155.629	-10.1629	99.4532	174.711	9.83553	82.3148	
255	2.125	173.704	48.6597	91.7234	164.624	70.8846	69.6325	161.062	87.6532	48.5663	147.322	90.3031	24.512	163.682	25.645	19.4901	145	41.3167	-3.09318	123.419	63.9221	13.8553	152.69	0.949798	16.7885	137.396	3.00378	-10.3229	115.744	21.9377	-23.9109	136.594	-9.98442	28.7192	122.473	-11.06	-3.23097	107.33	6.2451	-18.7351	113.44	-19.0205	44.4963	97.9046	-22.6681	23.6172	82.714	-22.0107	4.66027	147.129	-10.6668	72.6216	154.974	-10.9434	104.25	174.812	11.619	81.188	
256	2.13333	172.131	47.0958	87.6529	162.295	69.8646	71.0047	157.642	84.039	48.5143	144.378	85.0535	29.5418	161.693	24.7926	17.9279	146.821	39.565	-3.45225	123.654	60.7284	10.4157	151.373	-0.311646	20.63	136.3	2.27687	-9.38476	114.516	25.2701	-24.0832	139.026	-9.68224	23.8092	121.419	-12.2712	0.67196	106.257	6.3612	-18.0923	113.174	-19.4298	41.2638	98.1992	-20.0125	21.0185	81.4469	-20.2138	5.57401	150.356	-9.61499	73.7852	156.485	-11.4326	101.223	174.039	7.219	84.2018	
